<svg width="45" height="25" viewBox="0 0 45 25" fill="none" xmlns="http://www.w3.org/2000/svg">
  <g clip-path="url(#clip0_1016_265)">
    <path d="M0 17.299L3.91443 9.48995L0 3.18555V17.299Z" fill="#C62626"/>
    <path d="M1.77734 24.9998L11.4865 16.001L5.27943 18.6966L1.77734 24.9998Z" fill="#ED3A3A"/>
    <path d="M9.42015 0L0.0820312 18.206L6.15927 15.1019L11.4153 8.6956L9.42015 0Z" fill="#ED3A3A"/>
    <path d="M6.15927 15.1016L0.0820312 18.2057L5.27945 18.6965L11.4865 16.0009L6.15927 15.1016Z" fill="#C62626"/>
    <path d="M20.6373 6.25879H23.2216L27.7437 18.7495H24.8101L23.8499 15.9521H19.9918L19.0488 18.7495H16.1152L20.6373 6.25879ZM23.379 13.9648L21.9294 9.54814L20.4455 13.9648H23.379Z" fill="#ED3A3A"/>
    <path d="M34.5525 11.9213C33.9252 11.9241 33.3033 12.0373 32.7147 12.2558C32.1665 12.468 31.7706 12.7847 31.5271 13.206V18.75H28.7383V9.51389H31.3043V11.3785C31.5838 10.7989 32.0008 10.2976 32.5183 9.91898C32.9777 9.58024 33.5286 9.39049 34.0976 9.375H34.3779C34.4366 9.37549 34.495 9.3817 34.5525 9.39352V11.9213Z" fill="#ED3A3A"/>
    <path d="M38.2003 18.9263C37.7695 18.9301 37.3415 18.8556 36.9369 18.7064C36.5652 18.5706 36.2243 18.3612 35.9341 18.0907C35.654 17.8268 35.4284 17.5098 35.2702 17.1578C35.1052 16.7908 35.0217 16.3918 35.0256 15.9888C35.0202 15.5548 35.1192 15.126 35.3139 14.7388C35.5095 14.3606 35.7861 14.0309 36.1237 13.7736C36.497 13.4914 36.9165 13.2772 37.363 13.1405C37.8776 12.9819 38.4134 12.9038 38.9515 12.909C39.3261 12.9083 39.7 12.9405 40.0691 13.005C40.3949 13.0591 40.712 13.1568 41.0121 13.2956V12.8731C41.0121 11.806 40.3995 11.2724 39.1743 11.2724C38.6857 11.2706 38.2006 11.3568 37.742 11.527C37.2366 11.7246 36.7562 11.9818 36.3109 12.2932L35.4919 10.5328C36.0745 10.1444 36.7092 9.84199 37.3768 9.63468C38.051 9.43244 38.7512 9.33182 39.4546 9.33607C40.8398 9.33607 41.9118 9.66438 42.6707 10.321C43.4295 10.9777 43.8078 11.9395 43.8055 13.2064V15.5814C43.8055 15.8631 43.8492 16.0594 43.9364 16.1706C43.9957 16.2335 44.0669 16.2838 44.1459 16.3186C44.2248 16.3534 44.3098 16.3719 44.3959 16.3731V18.7504C44.1777 18.8053 43.9558 18.844 43.732 18.8662C43.5333 18.8835 43.3541 18.8928 43.191 18.8928C42.6672 18.8928 42.2714 18.7902 42.0034 18.5849C41.7302 18.3703 41.5489 18.0584 41.4968 17.7134L41.4451 17.2909C41.0574 17.8022 40.5589 18.2175 39.9876 18.505C39.4324 18.7835 38.8205 18.9278 38.2003 18.9263V18.9263ZM39.0216 16.8986C39.3226 16.8986 39.6213 16.8449 39.9037 16.74C40.1651 16.6487 40.4053 16.505 40.6101 16.3175C40.8773 16.1069 41.0113 15.8843 41.0121 15.6497V14.7701C40.7544 14.6724 40.4884 14.5988 40.2173 14.5502C39.9557 14.4993 39.69 14.4725 39.4236 14.4703C38.9769 14.4513 38.5354 14.5726 38.1601 14.8175C38.0067 14.9149 37.8804 15.05 37.7932 15.2102C37.706 15.3704 37.6607 15.5503 37.6616 15.7331C37.6579 15.8927 37.6907 16.0512 37.7574 16.1961C37.8241 16.341 37.923 16.4685 38.0464 16.5687C38.3212 16.7938 38.6677 16.9109 39.0216 16.8986Z" fill="#ED3A3A"/>
  </g>
  <defs>
    <clipPath id="clip0_1016_265">
      <rect width="45" height="25" fill="white"/>
    </clipPath>
  </defs>
</svg>
