<svg width="36" height="36" viewBox="0 0 36 36" fill="none" xmlns="http://www.w3.org/2000/svg">
  <rect width="36" height="36" transform="translate(0.599976)" fill="#D0E4FD"/>
  <path d="M26.0096 21.4771C26.0713 22.3091 25.4206 23.0539 24.5498 23.0539H12.6509C11.7802 23.0539 11.129 22.3091 11.1911 21.4771H11.1794V24.9061H11.1871C11.2136 25.672 11.8364 26.3249 12.6514 26.3249H24.5498C25.3648 26.3249 25.9876 25.6715 26.0141 24.9061H26.0213V21.4771H26.0096Z" fill="#333D4B"/>
  <path d="M12.6509 23.0541H24.5494C25.4201 23.0541 26.0713 22.3094 26.0092 21.4773C26.0029 21.3909 25.9966 21.3045 25.9741 21.2168L24.3037 17.5983C23.9635 16.8617 23.2264 16.3896 22.4146 16.3896H19.2556V17.6757C20.5403 17.8422 21.4993 18.4862 21.4993 19.2566C21.4993 20.1539 20.201 20.8806 18.5999 20.8806C16.9988 20.8806 15.7006 20.1534 15.7006 19.2566C15.7006 18.4862 16.6591 17.8422 17.9443 17.6757V16.3896H14.7853C13.9739 16.3896 13.2364 16.8612 12.8962 17.5983L11.2258 21.2168C11.2033 21.3041 11.197 21.3909 11.1907 21.4773C11.129 22.3094 11.7802 23.0541 12.6509 23.0541Z" fill="#4E5968"/>
  <path d="M17.9447 18.4799V17.6758C16.66 17.8423 15.701 18.4862 15.701 19.2566C15.701 20.1539 16.9988 20.8807 18.6004 20.8807C20.2019 20.8807 21.4998 20.1535 21.4998 19.2566C21.4998 18.4862 20.5413 17.8423 19.2561 17.6758V18.4799C19.2561 19.2215 17.9447 19.2215 17.9447 18.4799Z" fill="#333D4B"/>
  <path d="M17.9447 18.4798C17.9447 19.2214 19.256 19.2214 19.256 18.4798V14.8276C19.0463 14.8816 18.8272 14.9136 18.6004 14.9136C18.3736 14.9136 18.1544 14.8816 17.9447 14.8276V18.4798Z" fill="#AFB7C0"/>
  <path d="M19.2561 14.8273C20.3847 14.5357 21.2194 13.5138 21.2194 12.2943C21.2194 10.848 20.0467 9.67529 18.6004 9.67529C17.1541 9.67529 15.9814 10.848 15.9814 12.2943C15.9814 13.5138 16.8162 14.5357 17.9448 14.8273C18.1545 14.8813 18.3736 14.9133 18.6004 14.9133C18.8272 14.9133 19.0464 14.8813 19.2561 14.8273Z" fill="#EF4452"/>
</svg>
