<svg width="24" height="24" viewBox="0 0 24 24" fill="none" xmlns="http://www.w3.org/2000/svg">
  <rect width="24" height="24" fill="#FFC84D"/>
  <path d="M18.545 12.9678C19.0477 12.9678 19.4536 13.4176 19.361 13.9113C18.8104 16.8585 15.7213 19.1152 11.993 19.1152C8.2648 19.1152 5.17566 16.8585 4.62503 13.9113C4.53246 13.4176 4.93909 12.9678 5.44103 12.9678H18.545Z" fill="#FF6D00"/>
  <path d="M11.9936 14.7047C14.4382 14.7047 16.7003 14.0601 18.5456 12.9678H5.44092C7.28618 14.0601 9.54903 14.7047 11.9936 14.7047Z" fill="white"/>
  <path d="M8.86073 10.4617C9.66132 10.4617 10.3103 9.81269 10.3103 9.0121C10.3103 8.21151 9.66132 7.5625 8.86073 7.5625C8.06014 7.5625 7.41113 8.21151 7.41113 9.0121C7.41113 9.81269 8.06014 10.4617 8.86073 10.4617Z" fill="black"/>
  <path d="M15.1391 10.4617C15.9396 10.4617 16.5887 9.81269 16.5887 9.0121C16.5887 8.21151 15.9396 7.5625 15.1391 7.5625C14.3385 7.5625 13.6895 8.21151 13.6895 9.0121C13.6895 9.81269 14.3385 10.4617 15.1391 10.4617Z" fill="black"/>
</svg>
